<?xml version="1.0" encoding="utf-8" standalone="no"?>
<!-- 飞机图标 -->
<svg xmlns="http://www.w3.org/2000/svg" xmlns:xlink="http://www.w3.org/1999/xlink" viewBox="0 0 1024 1024">
  <path d="M439.22758 960.018803c-16.84362 0-31.18935-13.110599-32.661887-29.847795l-0.025583-0.293689-0.095167-61.432141 0.082888 0-0.279363-143.178957c-0.090051-27.089985 9.589402-50.585095 30.460756-73.92978 12.8077-14.465456 292.291043-330.9669 402.625964-455.987289l-717.143217 373.204887 239.739153 74.975599-20.511149 61.635779-10.985192-3.314489c-0.081864-0.025583-258.363326-81.534991-283.95826-89.599667-15.794731-5.057179-25.981744-17.398252-27.278273-33.021068-1.671059-18.298761 9.4093-36.072567 28.92068-46.331211C77.642334 517.385661 910.531715 98.140181 939.012374 83.816964c1.725294-1.52575 4.437056-3.368724 8.696056-5.629207 5.173836-2.746554 13.157671-6.02011 21.816888-6.02011 4.901637 0 9.496282 1.003863 13.656021 2.981914 26.567076 12.472056 22.26612 35.999912 20.199041 47.307446l-0.61603 3.339048c-1.140986 6.682189-27.871791 139.730415-84.069721 418.426835l-20.47124 101.616352c-18.981307 94.204545-32.694633 162.269757-34.223452 170.21266-5.820566 30.27963-30.596855 51.427276-60.252269 51.427276-5.681396 0-11.406794-0.838088-17.019629-2.493797-18.887163-5.443989-167.805844-50.884924-239.371786-72.723302-22.034852-6.724145-37.95545-11.58178-38.768979-11.82021l-11.663644-3.725858 21.095457-62.102407 10.861372 3.361561c2.471284 0.748037 241.175875 73.048713 270.953062 82.164325 7.29208-36.138058 92.75452-460.833667 120.027677-596.522022-78.82016 89.366354-297.103652 336.693322-394.58687 447.148993-26.529213 30.058596-43.268456 49.024553-44.400233 50.308803-4.508687 5.229095-9.181103 17.321504-8.783037 27.643594 0.499373 13.71742 0.025583 193.246259 0.005117 200.88217l-0.001023 0.295735-0.026606 0.293689C470.550982 946.916391 456.126458 960.018803 439.22758 960.018803z"></path>
</svg>
