<!-- 头像图标 -->
<?xml version="1.0" encoding="utf-8"?>
<svg xmlns="http://www.w3.org/2000/svg" xmlns:xlink="http://www.w3.org/1999/xlink" viewBox="0 0 1024 1024">
  <path d="M947.923862 963.760552c0 21.751172-17.619862 39.371034-39.353379 39.371034-21.751172 0-39.371034-17.619862-39.371034-39.371034l-0.353103-3.654621c0-1.553655 0.282483-3.054345 0.441379-4.590345-24.576-172.791172-172.720552-299.767172-353.103448-301.762207-1.447724 0.03531-2.824828 0.229517-4.290207 0.229517-1.430069 0-2.807172-0.194207-4.237241-0.229517-178.317241 1.977379-325.049379 126.146207-352.097103 295.936 0.900414 3.336828 1.536 6.779586 1.536 10.398897l0.370759 3.707586c0 22.086621-17.902345 39.988966-39.97131 39.988966s-39.988966-17.902345-39.988966-39.988966l-0.03531-0.353103L76.711724 963.442759c0.105931-1.165241 0.335448-2.277517 0.459034-3.425103 0-3.301517 0.529655-6.426483 1.271172-9.498483 20.497655-159.302621 127.240828-288.097103 272.525241-343.569655-84.585931-54.201379-139.74069-149.963034-139.74069-259.372138 0-169.224828 131.478069-306.405517 300.702897-306.405517 169.207172 0 300.702897 137.18069 300.702897 306.405517 0 109.373793-55.101793 205.117793-139.652414 259.319172 144.278069 55.031172 250.544552 182.324966 272.189793 340.038621 1.465379 4.13131 2.436414 8.527448 2.436414 13.170759L947.923862 963.760552zM743.494621 347.665655c0-127.947034-103.706483-231.653517-231.653517-231.653517s-231.653517 103.724138-231.653517 231.653517c0 127.929379 103.724138 231.635862 231.653517 231.635862S743.494621 475.595034 743.494621 347.665655z"></path>
</svg>
