<!-- 眼睛（空心）-->
<?xml version="1.0" encoding="utf-8"?>
<svg xmlns="http://www.w3.org/2000/svg" xmlns:xlink="http://www.w3.org/1999/xlink" viewBox="0 0 1024 1024">
  <path d="M1018.54519182 503.17580743c-1.37619683-3.42186325-34.62613447-84.72691485-113.48500252-166.61644402-46.42510051-48.20996551-99.13739491-86.65265949-156.6733642-114.26042311-71.94644821-34.5225125-151.47944391-52.02885291-236.38682396-52.02885291s-164.44037575 17.50634041-236.38798905 52.02885291c-57.53480419 27.60776477-110.24709859 66.05045874-156.67103516 114.26042311-78.860032 81.88952803-112.10997077 163.19574471-113.48733156 166.61644402-2.76636558 6.87516217-2.14928839 14.64799573 1.66726997 21.00155392 2.02005163 3.36131982 50.44774002 83.24942507 136.30518613 164.08177323 50.70039267 47.73260402 103.99483449 85.83299527 158.39768463 113.24282993 68.7888805 34.65640619 139.50234055 52.22911203 210.17737899 52.22911204s141.38849849-17.57270471 210.17737898-52.22911204c54.40401522-27.40983467 107.69496405-65.51022592 158.39884857-113.24282993 85.85628103-80.83234816 134.28513451-160.72045341 136.3028571-164.08177323C1020.69680811 517.82263922 1021.31272021 510.04980565 1018.54519182 503.17580743zM847.27156736 654.67388018c-47.30763605 44.39806293-96.75990471 79.6971611-146.98526493 104.91346261-61.93001813 31.09599232-125.27931165 46.86404039-188.28746752 46.86404039s-126.35744939-15.76804807-188.28746752-46.86404039c-50.22536021-25.21630265-99.67762773-60.51423573-146.98409984-104.91346261-64.05485682-60.11488256-106.94282923-121.02730638-122.54205382-144.63921039 11.24010439-23.55252451 42.42341888-82.12704483 98.8090641-140.6794422 42.50026211-44.13493248 90.63571229-79.26986411 143.07090432-104.43028025 65.51255381-31.43596601 138.16340139-47.37400149 215.93248882-47.37400149 77.37439232 0 149.68759296 15.77969095 214.93585237 46.89664 52.30479133 24.94851413 100.36106923 59.81100146 142.82640271 103.62226005 56.89677027 58.69793507 88.64476843 118.21320533 100.0350663 141.98694571C954.1864539 533.68266638 911.30779534 594.5787904 847.27156736 654.67388018z"></path>
  <path d="M512 287.27941234c-122.40583225 0-221.99031581 99.58564864-221.99031581 221.9903158 0 122.40816014 99.58564864 221.99264483 221.99031581 221.99264484S733.99031581 631.67788829 733.99031581 509.26972814C733.99031581 386.86506098 634.40466717 287.27941234 512 287.27941234zM512 683.98267961c-96.33726578 0-174.71062243-78.37568569-174.71062243-174.71295147s78.37335666-174.71062243 174.71062243-174.71062243 174.71062243 78.37335666 174.71062243 174.71062243S608.33610069 683.98267961 512 683.98267961z"></path>
</svg>
