<?xml version="1.0" encoding="utf-8" standalone="no"?>
<!-- 眼睛图标 -->
<svg xmlns="http://www.w3.org/2000/svg" xmlns:xlink="http://www.w3.org/1999/xlink" viewBox="0 0 1024 1024">
  <path d="M1023.619 511.873c0 98.048-210.945 307.137-511.617 307.137C219.009 819.074 0.384 613.378 0.384 511.873c0-101.44 219.585-306.817 511.617-306.817C814.978 205.057 1023.683 410.433 1023.619 511.873L1023.619 511.873zM512.449 261.121c-136.192 0-246.529 112.32-246.529 250.881s110.4 250.945 246.529 250.945c136.192 0 246.593-112.384 246.593-250.945S648.642 261.121 512.449 261.121L512.449 261.121zM512.001 351.873c-86.72 0-156.992 71.552-156.992 159.808s70.272 159.744 156.992 159.744 156.992-71.552 156.992-159.808S598.721 351.873 512.001 351.873L512.001 351.873z"></path>
</svg>
