<?xml version="1.0" encoding="utf-8" standalone="no"?>
<!-- 无奈图标 -->
<svg xmlns="http://www.w3.org/2000/svg" xmlns:xlink="http://www.w3.org/1999/xlink" viewBox="0 0 1024 1024">
  <path d="M975.715965 494.752378c-8.561769 0-15.510451-6.948682-15.510451-15.510451 0-247.143532-201.046471-448.221024-448.190003-448.221024C264.871978 31.020903 63.794487 232.098394 63.794487 479.241927c0 8.561769-6.948682 15.510451-15.510451 15.510451s-15.510451-6.948682-15.510451-15.510451c0-264.267071 215.005877-479.241927 479.241927-479.241927S991.226416 214.974856 991.226416 479.241927C991.226416 487.803696 984.277734 494.752378 975.715965 494.752378z"></path>
  <path d="M150.311784 491.681309c-12.563466 0-20.659921-0.496334-22.148925-0.589397C119.601091 490.502514 113.148743 483.11954 113.707119 474.588791c0.589397-8.561769 8.282581-14.796971 16.50312-14.455741 1.70615 0.155105 170.056589 10.112814 231.198788-72.83708 5.087428-6.88664 14.796971-8.375644 21.683611-3.257195 6.88664 5.087428 8.375644 14.796971 3.257195 21.683611C329.085247 483.398728 201.899546 491.681309 150.311784 491.681309z"></path>
  <path d="M857.836534 491.681309c-51.55674 0-178.773463-8.282581-236.193154-85.958922-5.087428-6.88664-3.629446-16.596183 3.257195-21.683611 6.824599-5.056407 16.565162-3.660467 21.683611 3.226174 61.328325 82.949894 229.709785 73.054226 231.322872 72.83708 9.213208-0.651439 15.944744 5.924992 16.50312 14.455741 0.558376 8.530748-5.893972 15.913723-14.455741 16.50312C878.496456 491.184974 870.431021 491.681309 857.836534 491.681309z"></path>
  <path d="M364.418055 365.116025c-18.953772 0-37.597334-4.12578-49.788549-11.539776C307.339594 349.140261 304.982005 339.585822 309.449015 332.29591c4.46701-7.289912 14.021448-9.61648 21.31136-5.180491 9.213208 5.583762 30.400485 9.213208 50.098758 5.583762C389.32784 331.055074 397.362254 336.669858 398.94432 345.107543S394.911603 361.610663 386.504938 363.161709C379.339109 364.495607 371.863072 365.116025 364.418055 365.116025z"></path>
  <path d="M632.066404 371.227143c-5.521721 0-10.702211-0.496334-15.293305-1.551045-8.344623-1.923296-13.556135-10.236898-11.632839-18.581521 1.923296-8.344623 10.143835-13.587155 18.612542-11.632839 10.423023 2.357589 32.075613-0.589397 49.881612-9.833626 7.507058-3.877613 16.937413-0.992669 20.908088 6.607452s0.992669 16.968434-6.607452 20.908088C670.687428 366.108694 649.593214 371.227143 632.066404 371.227143z"></path>
  <path d="M500.382672 704.577764c-121.229688 0-186.404605-69.672948-189.103423-72.650954-5.769888-6.297243-5.335595-16.099849 0.930627-21.869736 6.328264-5.769888 16.099849-5.397637 21.900757 0.868585 0.589397 0.651439 59.280945 62.631203 166.272039 62.631203 109.131536 0 190.499364-63.623872 191.305907-64.24429 6.700515-5.335595 16.441078-4.218843 21.776674 2.512693 5.335595 6.700515 4.218843 16.441078-2.512693 21.776674C707.323114 636.486883 620.185398 704.577764 500.382672 704.577764z"></path>
  <path d="M824.923357 837.099061c-4.218843 0-8.406665-1.70615-11.446713-5.025386-5.800909-6.328264-5.335595-16.16189 0.961648-21.931778 92.628416-84.749106 145.767222-205.358376 145.767222-330.89997 0-51.711845-8.778915-102.462042-26.1196-150.885671-2.884944-8.065435 1.302878-16.937413 9.368313-19.822357 8.096456-2.884944 16.968434 1.302878 19.853378 9.368313 18.5505 51.773887 27.918812 106.060467 27.918812 161.339715 0 134.196425-56.799273 263.150318-155.817995 353.793396C832.399394 835.765162 828.676886 837.099061 824.923357 837.099061z"></path>
  <path d="M196.967222 834.98964c-3.78455 0-7.538079-1.36492-10.516086-4.12578-97.653802-90.208785-153.677552-218.387155-153.677552-351.621933 0-264.267071 215.005877-479.241927 479.241927-479.241927 97.064405 0 190.561406 28.911481 270.378188 83.632354 7.072766 4.839261 8.840957 14.517782 4.001696 21.559527-4.80824 7.103787-14.455741 8.871978-21.559527 4.032717-74.57425-51.153469-162.022175-78.203696-252.789337-78.203696C264.871978 31.020903 63.794487 232.098394 63.794487 479.241927c0 124.610966 52.363284 244.475735 143.719842 328.85259 6.297243 5.83193 6.669494 15.634535 0.868585 21.900757C205.311845 833.314511 201.124023 834.98964 196.967222 834.98964z"></path>
  <path d="M453.57213 1023.689791c-2.41963 0-4.901303-0.589397-7.196849-1.799212-7.600121-3.970676-10.516086-13.370009-6.51439-20.939109l0 0c-0.093063 0 12.098152-40.296153-101.283248-119.864768-87.044653-61.204241-168.071251-48.361587-188.97934-23.948137-2.698819 3.195153-10.64017 12.408361 2.233505 27.918812 67.68761 18.178249 107.673553 44.235807 118.872099 77.459194 8.189518 24.38243-1.70615 46.190124-8.840957 55.248228-5.273553 6.731536-15.014117 7.879309-21.776674 2.574735-6.669494-5.273553-7.848288-14.921054-2.667798-21.65259 0.558376-0.713481 8.809936-12.284277 3.78455-26.646955-4.591094-13.090821-23.917116-38.031627-101.655498-58.133172-2.76086-0.713481-5.304574-2.202484-7.289912-4.280885-22.33505-23.265677-24.661618-51.091427-6.142139-72.712996 32.137655-37.411209 130.101666-51.711845 230.361224 18.767646 135.468282 95.079067 116.173281 149.675856 110.930748 159.664586C464.553529 1020.649743 459.155892 1023.689791 453.57213 1023.689791z"></path>
  <path d="M595.865011 1024c-5.769888 0-11.384671-3.226174-14.238594-8.59279-5.273553-9.95771-24.75468-64.61654 110.899727-159.695607 100.228537-70.510512 198.25459-56.240897 230.361224-18.767646 18.5505 21.590548 16.16189 49.447319-6.142139 72.712996-1.954317 2.04738-4.529052 3.536383-7.289912 4.280885-78.265738 20.225629-97.405635 45.35256-101.810603 58.536444-4.870282 14.517782 3.753529 26.026537 3.846592 26.1196 5.304574 6.731536 4.156801 16.472099-2.543714 21.807695-6.700515 5.273553-16.410058 4.156801-21.807695-2.543714-7.134808-9.058104-17.092517-30.896819-8.902999-55.279249 11.167525-33.223387 51.153469-59.280945 118.934141-77.459194 12.873675-15.510451 4.932324-24.75468 2.202484-27.918812-20.908088-24.41345-101.996728-37.194062-188.97934 23.948137-114.187943 80.033929-101.066101 120.299061-100.910997 120.702333 4.001696 7.5691 0.899606 16.534141-6.669494 20.535838C600.580188 1023.472645 598.222599 1024 595.865011 1024z"></path>
  <path d="M453.57213 1023.689791c-2.41963 0-4.901303-0.589397-7.196849-1.799212-7.600121-3.970676-10.516086-13.370009-6.51439-20.939109l0 0c-0.093063 0 12.098152-40.296153-101.283248-119.864768-87.044653-61.204241-168.071251-48.361587-188.97934-23.948137-2.698819 3.195153-10.64017 12.408361 2.233505 27.918812 67.68761 18.178249 107.673553 44.235807 118.872099 77.459194 8.189518 24.38243-1.70615 46.190124-8.840957 55.248228-5.273553 6.731536-15.014117 7.879309-21.776674 2.574735-6.669494-5.273553-7.848288-14.921054-2.667798-21.65259 0.558376-0.713481 8.809936-12.284277 3.78455-26.646955-4.591094-13.090821-23.917116-38.031627-101.655498-58.133172-2.76086-0.713481-5.304574-2.202484-7.289912-4.280885-22.33505-23.265677-24.661618-51.091427-6.142139-72.712996 32.137655-37.411209 130.101666-51.711845 230.361224 18.767646 135.468282 95.079067 116.173281 149.675856 110.930748 159.664586C464.553529 1020.649743 459.155892 1023.689791 453.57213 1023.689791z"></path>
</svg>
