<?xml version="1.0" encoding="utf-8" standalone="no"?>
<!-- 点赞图标 -->
<svg xmlns="http://www.w3.org/2000/svg" xmlns:xlink="http://www.w3.org/1999/xlink" viewBox="0 0 1024 1024">
  <path d="M941.087127 414.936337 667.674037 414.936337C773.631254 27.755134 594.692862 7.973602 594.692862 7.973602c-75.842339 0-60.126402 59.344596-65.856917 69.245084 0 189.348486-203.239867 337.717651-203.239867 337.717651l0 536.967648c0 53.012378 72.992431 72.094992 101.629655 72.094992l410.797064 0c38.653345 0 70.131267-100.32187 70.131267-100.32187 101.629655-341.981768 101.629655-443.716824 101.629655-443.716824C1009.784742 409.30099 941.087127 414.936337 941.087127 414.936337zM213.399763 415.126672 49.682028 415.126672c-33.81106 0-34.32783 32.849152-34.32783 32.849152l33.809013 541.569456c0 34.45472 34.887578 34.45472 34.887578 34.45472l141.700279 0c29.513174 0 29.259394-22.800285 29.259394-22.800285L255.010463 456.18888C255.010463 414.598646 213.399763 415.126672 213.399763 415.126672z"></path>
</svg>
