<!-- 铅笔图标 -->
<?xml version="1.0" encoding="utf-8"?>
<svg xmlns="http://www.w3.org/2000/svg" xmlns:xlink="http://www.w3.org/1999/xlink" viewBox="0 0 1024 1024">
  <path d="M1001.779985 254.365986 764.882987 21.863986C738.818987-3.793014 696.337985-3.793014 670.207986 21.863986L78.078986 602.981985C55.872986 659.616987 15.984986 902.209985 2.619986 993.735984 12.658986 1003.612985 18.182986 1015.837986 30.746986 1021.379985 118.968986 1008.231984 377.405986 939.800986 409.713985 928.358986L1001.778987 347.312987C1027.908986 321.594985 1027.908986 279.946986 1001.778987 254.367986L1001.778987 254.367986 1001.778987 254.367986 1001.779985 254.365986ZM101.747986 951.596985 78.079986 928.358986 98.428986 808.836986 213.447986 921.751987 101.747986 951.596985 101.747986 951.596985ZM362.313987 881.819986 287.916985 901.856987 111.992986 729.180985 125.489986 649.455986 599.137985 184.580986 646.542985 231.055986 196.562986 672.693985 243.900986 719.161987 693.880986 277.531986 741.218987 324.001985 385.986987 672.692986 433.390985 719.160986 788.629985 370.546987 835.969985 417.021986 362.320987 881.817987 362.313987 881.819986ZM883.365985 370.548986 646.542985 138.114986 717.547986 68.338986 954.372986 300.840986 883.365985 370.548986 883.365985 370.548986Z"></path>
</svg>
