<!-- 照片图标 -->
<?xml version="1.0" encoding="utf-8"?>
<svg xmlns="http://www.w3.org/2000/svg" xmlns:xlink="http://www.w3.org/1999/xlink" viewBox="0 0 1024 1024">
  <path d="M915.4924479 99.32809861H108.5075521c-55.70717663 0-100.87311197 46.17466745-100.87311197 103.16797507v619.00785264c0 56.94287157 45.16593643 103.14275759 100.87311197 103.1427565h806.9848958c55.70717663 0 100.87311197-46.19988493 100.87311197-103.1427565V202.49607368c0-56.99330872-45.16593643-103.16797508-100.87311197-103.16797507z m33.61596518 492.26078652a132.59770582 132.59770582 0 0 0-145.98861125 30.21149785l-90.28143569 92.34933381c-1.8409342-2.11833526-3.20272091-4.51407157-5.22018404-6.53153469L421.9455293 415.48965032a132.52205118 132.52205118 0 0 0-190.42321771 0l-156.63072467 160.21171986V271.29153612c0-56.99330872 45.16593643-103.16797508 100.87311197-103.16797508h672.49581971c55.70717663 0 100.87311197 46.19988493 100.87311306 103.16797508v320.29734901h-0.02521858z m-218.54159779-320.29734901c-65.01272083 0-117.69370331 53.89145993-117.69370332 120.34162319S665.55409446 512 730.56681529 512c64.98750225 0 117.66848474-53.89145993 117.66848582-120.34162319s-52.68098248-120.36684069-117.66848582-120.36684069z"></path>
</svg>
