<!-- 加号菜单图标 -->
<?xml version="1.0" encoding="utf-8"?>
<svg xmlns="http://www.w3.org/2000/svg" xmlns:xlink="http://www.w3.org/1999/xlink" viewBox="0 0 1024 1024">
  <path d="M872.33888597 153.11727389C776.07380309 57.32583424 648.13332935 4.56939861 512 4.56939861s-264.11099022 52.75643563-360.3760731 148.54787528C55.32361501 248.94590066 2.27555555 376.41273003 2.27555555 512c0 135.62249899 53.04805945 263.05409934 149.31314234 358.88272611 96.26508288 95.79143965 224.24274261 148.54787527 360.3760731 148.54787528s264.11099022-52.75643563 360.33888597-148.54787528c96.33749902-95.86385579 149.38555847-223.33264327 149.34837134-358.91795626C1021.68725731 376.37750101 968.67638499 248.94590066 872.33888597 153.11727389zM766.86320071 548.40986738L548.40986738 548.40986738l0 218.45333333c0 20.13375829-16.31133923 36.40986738-36.40986738 36.40986738s-36.40986738-16.27415211-36.40986738-36.40986738L475.59013262 548.40986738 257.13875627 548.40986738c-20.09852814 0-36.40986738-16.31133923-36.40986738-36.40986738s16.31133923-36.40986738 36.40986738-36.40986738l218.45333333 0L475.5920896 257.13875627c0-20.09852814 16.31133923-36.40986738 36.40986738-36.40986738s36.40986738 16.31133923 36.40986737 36.40986738l0 218.45333333 218.45333334 0c20.13375829 0 36.40986738 16.31133923 36.40986738 36.40986738S786.99695901 548.40986738 766.86320071 548.40986738z"></path>
</svg>
