<?xml version="1.0" encoding="utf-8" standalone="no"?>
<!-- 垃圾桶图标 -->
<svg xmlns="http://www.w3.org/2000/svg" xmlns:xlink="http://www.w3.org/1999/xlink" viewBox="0 0 1024 1024">
  <path d="M479.18546071 293.57039497c0-19.68156664 16.10309998-35.78466661 35.78466662-35.7846666l0 0c19.68156664 0 35.78466661 16.10309998 35.78466662 35.7846666l0 542.74603857c0 19.68156664-16.10309998 35.78466661-35.78466662 35.78466661l0 0c-19.68156664 0-35.78466661-16.10309998-35.78466662-35.78466661L479.18546071 293.57039497zM310.71125029 293.57039497c0-19.68156664 16.10309998-35.78466661 35.7846666-35.7846666l0 0c19.68156664 0 35.78466661 16.10309998 35.78466664 35.7846666l0 542.74603857c0 19.68156664-16.10309998 35.78466661-35.78466664 35.78466661l0 0c-19.68156664 0-35.78466661-16.10309998-35.7846666-35.78466661L310.71125029 293.57039497zM647.69545581 293.57039497c0-19.68156664 16.10309998-35.78466661 35.78466661-35.7846666l0 0c19.68156664 0 35.78466661 16.10309998 35.78466662 35.7846666l0 542.74603857c0 19.68156664-16.10309998 35.78466661-35.78466662 35.78466661l0 0c-19.68156664 0-35.78466661-16.10309998-35.78466661-35.78466661L647.69545581 293.57039497zM944.38612672 117.61718922l-140.8484478 0-51.45835059 0 0-44.98132594c0-35.03318861-31.4189373-62.37267392-71.56933323-62.37267391l-331.0081662 0c-40.15039594 0-71.56933323 27.41105463-71.56933324 62.37267391l0 44.98132594-51.45835059 0-146.86027179 0c-19.75313598 0-35.78466661 15.99574598-35.78466663 35.78466662s16.03153065 35.78466661 35.78466663 35.78466662l75.29093857 0 0 754.73440359c0 38.50430128 32.09884596 69.81588457 71.56933322 69.81588458l577.02774918 0c39.47048727 0 71.56933323-31.31158329 71.56933323-69.81588458l0-754.73440359 69.31489924 0c19.75313598 0 35.78466661-15.99574598 35.78466663-35.78466662S964.1392627 117.61718922 944.38612672 117.61718922zM349.46604423 81.83252261l331.0081662 0 0 35.78466661-331.0081662 0L349.46604423 81.83252261zM765.85642497 942.27483139c0 0-462.98201668 1.53874065-502.13044196 1.53874066s-37.25183795-40.40088861-37.25183794-40.4008886 0-638.50580644 0-679.9086657 35.03318861-34.31749529 35.03318863-34.31749529l87.9944952 0 331.0081662 0 80.87334655 0c0 0 42.19012194-2.54071132 42.19012194 34.31749529s0.57255466 648.56129775 0.57255466 683.23663969S765.85642497 942.27483139 765.85642497 942.27483139z"></path>
</svg>
