<?xml version="1.0" encoding="utf-8" standalone="no"?>
<!-- 飞机图标 -->
<svg xmlns="http://www.w3.org/2000/svg" xmlns:xlink="http://www.w3.org/1999/xlink" viewBox="0 0 1024 1024">
  <path d="M870.411553 556.904723C870.411553 468.860481 778.993032 397.48999 666.019135 397.48999 553.151631 397.48999 461.626712 468.860481 461.626712 556.904723 461.626712 644.417867 552.090743 715.363689 664.108104 716.213031 712.843505 798.204416 757.544056 782.485414 757.544056 782.485414 757.544056 782.485414 722.717853 759.333111 719.10756 710.796674 806.280481 692.530658 870.411553 630.612444 870.411553 556.904723L870.411553 556.904723ZM598.065993 532.053732C584.899516 532.053732 574.17605 521.326413 574.17605 508.157486 574.17605 494.987535 584.90054 484.26124 598.065993 484.26124 611.232473 484.26124 621.955939 494.987536 621.955939 508.157486 621.955939 521.326413 611.232473 532.053732 598.065993 532.053732L598.065993 532.053732ZM728.982926 532.053732C715.711078 532.053732 705.092981 521.326413 705.092981 508.157486 705.092981 494.987535 715.711078 484.26124 728.982926 484.26124 742.149403 484.26124 752.766476 494.987536 752.766476 508.157486 752.766476 521.326413 742.149403 532.053732 728.982926 532.053732L728.982926 532.053732ZM641.174697 369.664248C606.878431 294.364261 513.973433 240.306064 404.609829 240.306064 266.047747 240.306064 153.7112 327.07629 153.7112 434.025091 153.7112 525.680581 236.211916 602.46743 346.954572 622.540607 344.830748 685.945681 299.387476 716.214055 299.387476 716.214055 299.387476 716.214055 356.723546 736.500073 418.200866 627.744117 418.200866 627.744117 417.881678 627.638718 417.351746 627.532294 428.924333 627.001199 440.392569 625.939004 451.540596 624.346738 436.675879 600.768743 428.288004 574.323441 428.288004 546.284851 428.286982 452.186729 522.361308 375.293455 641.174697 369.664248L641.174697 369.664248ZM329.754264 401.632333C312.234767 401.632333 298.112775 387.506614 298.112775 370.089943 298.112775 352.565824 312.234768 338.440106 329.754264 338.440106 347.167365 338.440106 361.288335 352.565825 361.288335 370.089943 361.289357 387.506615 347.168387 401.632333 329.754264 401.632333L329.754264 401.632333ZM457.380088 370.089943C457.380088 352.565824 471.502081 338.440106 489.021577 338.440106 506.434678 338.440106 520.555647 352.565825 520.555647 370.089943 520.555647 387.507638 506.434678 401.632333 489.021577 401.632333 471.502081 401.632333 457.380088 387.506615 457.380088 370.089943L457.380088 370.089943ZM512.135037 0C229.176496 0-4.0e-06 229.236961-4.0e-06 512-4.0e-06 794.760993 229.176495 1024 512.135037 1024 794.821451 1024 1023.999994 794.760993 1023.999994 512 1023.999994 229.236961 794.821451 0 512.135037 0L512.135037 0ZM512.110175 967.589225C260.844093 967.589225 56.419424 763.218601 56.419424 512.008187 56.419424 260.794702 260.843069 56.416918 512.110175 56.416918 763.369093 56.416918 967.77943 260.794702 967.77943 512.008187 967.77943 763.218601 763.369093 967.589225 512.110175 967.589225L512.110175 967.589225Z"></path>
</svg>
